<svg xmlns="http://www.w3.org/2000/svg" width="124.946" height="37.903" viewBox="0 0 124.946 37.903"><path d="M186.824,74.668v27.917H207V96.741H195.234v-5.1h11.022V85.764H195.234V80.531H207V74.668Z" transform="translate(-161.843 -64.684)" fill="#fff"/><path d="M396.175,102.581h-9.15l-4.87-10.94h-1.72v10.94h-8.41V74.662h15.984c4.969,0,6.642,2.314,6.642,5.664v4.707c0,4.985-2.939,6.483-4.045,6.608h-.1ZM380.434,80.555V85.76h5.486c.492,0,.69-.2.69-.759V81.311c0-.557-.2-.757-.69-.757Z" transform="translate(-322.28 -64.679)" fill="#fff"/><path d="M574.09,74.675l-3.344,14.806-.795,5.159h-.527l-.748-5.16-3.341-14.8h-8.9l7.82,27.917h10.33l7.87-27.917Z" transform="translate(-482.031 -64.69)" fill="#fff"/><path d="M747.724,74.675l-7.872,27.917H749l.839-4.706H755.4l.935,4.706h9.54l-7.819-27.917ZM751.5,88.082l.85-5.455h.529l.831,5.456.9,3.913h-3.983Z" transform="translate(-640.926 -64.69)" fill="#fff"/><path d="M8.42,82.038v13.21c0,.557.2.757.689.757h9.178c1,0,1.87-.005,2.608-.005v6.59H6.651c-4.969,0-6.641-2.313-6.641-5.662V80.336c0-3.351,1.671-5.663,6.641-5.663H20.9v6.61l-2.608,0H9.158c-.541,0-.738.2-.738.757" transform="translate(-0.009 -64.688)" fill="#fff"/><path d="M0,6.6H18.6C20.921,6.6,22,5.42,22,3.148V0H0Z" fill="#ffbf00"/></svg>